<mxfile host="app.diagrams.net" agent="Mozilla/5.0 (Windows NT 10.0; Win64; x64) AppleWebKit/537.36 (KHTML, like Gecko) Chrome/140.0.0.0 Safari/537.36 Edg/140.0.0.0" version="28.2.5">
  <diagram name="PÃ¡gina-1" id="Eb7A5PnACeg_98H8V4B_">
    <mxGraphModel grid="1" page="1" gridSize="10" guides="1" tooltips="1" connect="1" arrows="1" fold="1" pageScale="1" pageWidth="827" pageHeight="1169" math="0" shadow="0">
      <root>
        <mxCell id="0" />
        <mxCell id="1" parent="0" />
        <mxCell id="B5fJu6G9B3R-awWmmp3N-1" value="AppHostedService" style="swimlane;fontStyle=1;align=center;verticalAlign=top;childLayout=stackLayout;horizontal=1;startSize=26;horizontalStack=0;resizeParent=1;resizeParentMax=0;resizeLast=0;collapsible=1;marginBottom=0;whiteSpace=wrap;html=1;" vertex="1" parent="1">
          <mxGeometry x="30" y="350" width="320" height="160" as="geometry" />
        </mxCell>
        <mxCell id="B5fJu6G9B3R-awWmmp3N-2" value="&lt;div&gt;-&amp;nbsp;&lt;span style=&quot;background-color: transparent; color: light-dark(rgb(0, 0, 0), rgb(255, 255, 255));&quot;&gt;settings:&lt;/span&gt;&lt;span style=&quot;background-color: transparent; color: light-dark(rgb(0, 0, 0), rgb(255, 255, 255));&quot;&gt;&amp;nbsp;IOptions&amp;lt;AppSettings&amp;gt;&amp;nbsp;&lt;/span&gt;&lt;/div&gt;&lt;div&gt;-&amp;nbsp;&lt;span style=&quot;background-color: transparent; color: light-dark(rgb(0, 0, 0), rgb(255, 255, 255));&quot;&gt;console:&amp;nbsp;&lt;/span&gt;&lt;span style=&quot;background-color: transparent; color: light-dark(rgb(0, 0, 0), rgb(255, 255, 255));&quot;&gt;&amp;nbsp;&lt;/span&gt;&lt;span style=&quot;background-color: transparent; color: light-dark(rgb(0, 0, 0), rgb(255, 255, 255));&quot;&gt;IConsole&lt;/span&gt;&lt;/div&gt;&lt;div&gt;-&amp;nbsp;&lt;span style=&quot;background-color: transparent; color: light-dark(rgb(0, 0, 0), rgb(255, 255, 255));&quot;&gt;promptFlow:&amp;nbsp;&lt;/span&gt;&lt;span style=&quot;background-color: transparent; color: light-dark(rgb(0, 0, 0), rgb(255, 255, 255));&quot;&gt;IPromptFlow&lt;/span&gt;&lt;/div&gt;&lt;div&gt;- f&lt;span style=&quot;background-color: transparent; color: light-dark(rgb(0, 0, 0), rgb(255, 255, 255));&quot;&gt;ormatterFactory:&amp;nbsp;&lt;/span&gt;&lt;span style=&quot;background-color: transparent; color: light-dark(rgb(0, 0, 0), rgb(255, 255, 255));&quot;&gt;IOutputFormatterFactory&lt;/span&gt;&lt;/div&gt;&lt;div&gt;-&amp;nbsp;&lt;span style=&quot;background-color: transparent; color: light-dark(rgb(0, 0, 0), rgb(255, 255, 255));&quot;&gt;fileExporter:&amp;nbsp;&lt;/span&gt;&lt;span style=&quot;background-color: transparent; color: light-dark(rgb(0, 0, 0), rgb(255, 255, 255));&quot;&gt;IFileExporter&lt;/span&gt;&lt;/div&gt;" style="text;strokeColor=none;fillColor=none;align=left;verticalAlign=top;spacingLeft=4;spacingRight=4;overflow=hidden;rotatable=0;points=[[0,0.5],[1,0.5]];portConstraint=eastwest;whiteSpace=wrap;html=1;" vertex="1" parent="B5fJu6G9B3R-awWmmp3N-1">
          <mxGeometry y="26" width="320" height="84" as="geometry" />
        </mxCell>
        <mxCell id="B5fJu6G9B3R-awWmmp3N-3" value="" style="line;strokeWidth=1;fillColor=none;align=left;verticalAlign=middle;spacingTop=-1;spacingLeft=3;spacingRight=3;rotatable=0;labelPosition=right;points=[];portConstraint=eastwest;strokeColor=inherit;" vertex="1" parent="B5fJu6G9B3R-awWmmp3N-1">
          <mxGeometry y="110" width="320" height="8" as="geometry" />
        </mxCell>
        <mxCell id="B5fJu6G9B3R-awWmmp3N-4" value="&lt;div&gt;+ StartAsync(CancellationToken cancellationToken): Task&lt;/div&gt;&lt;div&gt;&lt;span style=&quot;background-color: transparent; color: light-dark(rgb(0, 0, 0), rgb(255, 255, 255));&quot;&gt;+ StopAsync(CancellationToken cancellationToken): Task&lt;/span&gt;&lt;/div&gt;" style="text;strokeColor=none;fillColor=none;align=left;verticalAlign=top;spacingLeft=4;spacingRight=4;overflow=hidden;rotatable=0;points=[[0,0.5],[1,0.5]];portConstraint=eastwest;whiteSpace=wrap;html=1;" vertex="1" parent="B5fJu6G9B3R-awWmmp3N-1">
          <mxGeometry y="118" width="320" height="42" as="geometry" />
        </mxCell>
        <mxCell id="B5fJu6G9B3R-awWmmp3N-9" value="&amp;lt;&amp;lt;IConsole&amp;gt;&amp;gt;" style="swimlane;fontStyle=0;childLayout=stackLayout;horizontal=1;startSize=26;fillColor=none;horizontalStack=0;resizeParent=1;resizeParentMax=0;resizeLast=0;collapsible=1;marginBottom=0;whiteSpace=wrap;html=1;" vertex="1" parent="1">
          <mxGeometry x="827" y="830" width="170" height="90" as="geometry" />
        </mxCell>
        <mxCell id="B5fJu6G9B3R-awWmmp3N-10" value="&lt;div&gt;+ Write(string message): void&lt;/div&gt;&lt;div&gt;+ WriteLine(string message): void&lt;/div&gt;&lt;div&gt;+ ReadLine(): string&lt;/div&gt;" style="text;strokeColor=none;fillColor=none;align=left;verticalAlign=top;spacingLeft=4;spacingRight=4;overflow=hidden;rotatable=0;points=[[0,0.5],[1,0.5]];portConstraint=eastwest;whiteSpace=wrap;html=1;" vertex="1" parent="B5fJu6G9B3R-awWmmp3N-9">
          <mxGeometry y="26" width="170" height="64" as="geometry" />
        </mxCell>
        <mxCell id="B5fJu6G9B3R-awWmmp3N-13" value="SystemConsole" style="swimlane;fontStyle=0;childLayout=stackLayout;horizontal=1;startSize=26;fillColor=none;horizontalStack=0;resizeParent=1;resizeParentMax=0;resizeLast=0;collapsible=1;marginBottom=0;whiteSpace=wrap;html=1;" vertex="1" parent="1">
          <mxGeometry x="1047" y="830" width="170" height="90" as="geometry" />
        </mxCell>
        <mxCell id="B5fJu6G9B3R-awWmmp3N-14" value="&lt;div&gt;+ Write(string message): void&lt;/div&gt;&lt;div&gt;+ WriteLine(string message): void&lt;/div&gt;&lt;div&gt;+ ReadLine(): string&lt;/div&gt;" style="text;strokeColor=none;fillColor=none;align=left;verticalAlign=top;spacingLeft=4;spacingRight=4;overflow=hidden;rotatable=0;points=[[0,0.5],[1,0.5]];portConstraint=eastwest;whiteSpace=wrap;html=1;" vertex="1" parent="B5fJu6G9B3R-awWmmp3N-13">
          <mxGeometry y="26" width="170" height="64" as="geometry" />
        </mxCell>
        <mxCell id="B5fJu6G9B3R-awWmmp3N-29" value="" style="endArrow=open;startArrow=none;endFill=0;startFill=0;endSize=8;html=1;verticalAlign=bottom;dashed=1;labelBackgroundColor=none;rounded=0;fontSize=12;curved=1;exitX=0;exitY=0.5;exitDx=0;exitDy=0;entryX=1;entryY=0.5;entryDx=0;entryDy=0;" edge="1" parent="1" source="B5fJu6G9B3R-awWmmp3N-14" target="B5fJu6G9B3R-awWmmp3N-10">
          <mxGeometry width="160" relative="1" as="geometry">
            <mxPoint x="1047" y="1020" as="sourcePoint" />
            <mxPoint x="1207" y="1020" as="targetPoint" />
          </mxGeometry>
        </mxCell>
        <mxCell id="B5fJu6G9B3R-awWmmp3N-31" value="IOutputFormatterFactory" style="swimlane;fontStyle=0;childLayout=stackLayout;horizontal=1;startSize=26;fillColor=none;horizontalStack=0;resizeParent=1;resizeParentMax=0;resizeLast=0;collapsible=1;marginBottom=0;whiteSpace=wrap;html=1;" vertex="1" parent="1">
          <mxGeometry x="380" y="190" width="170" height="90" as="geometry" />
        </mxCell>
        <mxCell id="B5fJu6G9B3R-awWmmp3N-32" value="&lt;div&gt;+ Write(string message): void&lt;/div&gt;&lt;div&gt;+ WriteLine(string message): void&lt;/div&gt;&lt;div&gt;+ ReadLine(): string&lt;/div&gt;" style="text;strokeColor=none;fillColor=none;align=left;verticalAlign=top;spacingLeft=4;spacingRight=4;overflow=hidden;rotatable=0;points=[[0,0.5],[1,0.5]];portConstraint=eastwest;whiteSpace=wrap;html=1;" vertex="1" parent="B5fJu6G9B3R-awWmmp3N-31">
          <mxGeometry y="26" width="170" height="64" as="geometry" />
        </mxCell>
        <mxCell id="B5fJu6G9B3R-awWmmp3N-33" value="&amp;lt;&amp;lt;IOutputFormatter&amp;gt;&amp;gt;" style="swimlane;fontStyle=0;childLayout=stackLayout;horizontal=1;startSize=26;fillColor=none;horizontalStack=0;resizeParent=1;resizeParentMax=0;resizeLast=0;collapsible=1;marginBottom=0;whiteSpace=wrap;html=1;" vertex="1" parent="1">
          <mxGeometry x="590" y="280" width="210" height="90" as="geometry" />
        </mxCell>
        <mxCell id="B5fJu6G9B3R-awWmmp3N-34" value="&lt;div&gt;+ FileExtension:&amp;nbsp;&lt;span style=&quot;background-color: transparent; color: light-dark(rgb(0, 0, 0), rgb(255, 255, 255));&quot;&gt;string&lt;/span&gt;&lt;span style=&quot;background-color: transparent; color: light-dark(rgb(0, 0, 0), rgb(255, 255, 255));&quot;&gt;&amp;nbsp;&lt;/span&gt;&lt;/div&gt;&lt;div&gt;+ Format(TestDocument document): string&lt;/div&gt;" style="text;strokeColor=none;fillColor=none;align=left;verticalAlign=top;spacingLeft=4;spacingRight=4;overflow=hidden;rotatable=0;points=[[0,0.5],[1,0.5]];portConstraint=eastwest;whiteSpace=wrap;html=1;" vertex="1" parent="B5fJu6G9B3R-awWmmp3N-33">
          <mxGeometry y="26" width="210" height="64" as="geometry" />
        </mxCell>
        <mxCell id="B5fJu6G9B3R-awWmmp3N-35" value="" style="endArrow=open;startArrow=none;endFill=0;startFill=0;endSize=8;html=1;verticalAlign=bottom;dashed=1;labelBackgroundColor=none;rounded=0;fontSize=12;curved=1;exitX=1.008;exitY=0.328;exitDx=0;exitDy=0;entryX=0.5;entryY=0;entryDx=0;entryDy=0;exitPerimeter=0;" edge="1" parent="1" source="B5fJu6G9B3R-awWmmp3N-32" target="B5fJu6G9B3R-awWmmp3N-33">
          <mxGeometry width="160" relative="1" as="geometry">
            <mxPoint x="640" y="234.66" as="sourcePoint" />
            <mxPoint x="590" y="234.66" as="targetPoint" />
          </mxGeometry>
        </mxCell>
        <mxCell id="B5fJu6G9B3R-awWmmp3N-36" value="" style="endArrow=none;html=1;rounded=0;fontSize=12;startSize=8;endSize=8;curved=1;exitX=1.004;exitY=0.151;exitDx=0;exitDy=0;entryX=0.002;entryY=-0.006;entryDx=0;entryDy=0;entryPerimeter=0;exitPerimeter=0;" edge="1" parent="1" source="B5fJu6G9B3R-awWmmp3N-1" target="B5fJu6G9B3R-awWmmp3N-32">
          <mxGeometry width="50" height="50" relative="1" as="geometry">
            <mxPoint x="380" y="622" as="sourcePoint" />
            <mxPoint x="406" y="350" as="targetPoint" />
          </mxGeometry>
        </mxCell>
        <mxCell id="B5fJu6G9B3R-awWmmp3N-37" value="HtmlFormatter" style="swimlane;fontStyle=1;align=center;verticalAlign=top;childLayout=stackLayout;horizontal=1;startSize=26;horizontalStack=0;resizeParent=1;resizeParentMax=0;resizeLast=0;collapsible=1;marginBottom=0;whiteSpace=wrap;html=1;" vertex="1" parent="1">
          <mxGeometry x="860" y="170" width="250" height="134" as="geometry" />
        </mxCell>
        <mxCell id="B5fJu6G9B3R-awWmmp3N-38" value="&lt;div&gt;+ FileExtension: string&amp;nbsp;&lt;/div&gt;&lt;div&gt;+ Format(TestDocument document): string&lt;/div&gt;&lt;div&gt;- HtmlEscape(string value): string&lt;/div&gt;" style="text;strokeColor=none;fillColor=none;align=left;verticalAlign=top;spacingLeft=4;spacingRight=4;overflow=hidden;rotatable=0;points=[[0,0.5],[1,0.5]];portConstraint=eastwest;whiteSpace=wrap;html=1;" vertex="1" parent="B5fJu6G9B3R-awWmmp3N-37">
          <mxGeometry y="26" width="250" height="54" as="geometry" />
        </mxCell>
        <mxCell id="ZA6EI-04dFtOXbXO-Yld-1" value="&lt;div&gt;+ FileExtension: string&amp;nbsp;&lt;/div&gt;&lt;div&gt;+ Format(TestDocument document): string&lt;/div&gt;&lt;div&gt;- HtmlEscape(string value): string&lt;/div&gt;" style="text;strokeColor=none;fillColor=none;align=left;verticalAlign=top;spacingLeft=4;spacingRight=4;overflow=hidden;rotatable=0;points=[[0,0.5],[1,0.5]];portConstraint=eastwest;whiteSpace=wrap;html=1;" vertex="1" parent="B5fJu6G9B3R-awWmmp3N-37">
          <mxGeometry y="80" width="250" height="54" as="geometry" />
        </mxCell>
        <mxCell id="B5fJu6G9B3R-awWmmp3N-41" value="" style="endArrow=open;startArrow=none;endFill=0;startFill=0;endSize=8;html=1;verticalAlign=bottom;dashed=1;labelBackgroundColor=none;rounded=0;fontSize=12;curved=1;exitX=0.003;exitY=0.105;exitDx=0;exitDy=0;entryX=1.004;entryY=0.061;entryDx=0;entryDy=0;exitPerimeter=0;entryPerimeter=0;" edge="1" parent="1" source="B5fJu6G9B3R-awWmmp3N-38" target="B5fJu6G9B3R-awWmmp3N-34">
          <mxGeometry width="160" relative="1" as="geometry">
            <mxPoint x="800" y="350" as="sourcePoint" />
            <mxPoint x="944" y="393" as="targetPoint" />
          </mxGeometry>
        </mxCell>
        <mxCell id="B5fJu6G9B3R-awWmmp3N-42" value="MarkdownFormatter" style="swimlane;fontStyle=1;align=center;verticalAlign=top;childLayout=stackLayout;horizontal=1;startSize=26;horizontalStack=0;resizeParent=1;resizeParentMax=0;resizeLast=0;collapsible=1;marginBottom=0;whiteSpace=wrap;html=1;" vertex="1" parent="1">
          <mxGeometry x="860" y="280" width="250" height="80" as="geometry" />
        </mxCell>
        <mxCell id="B5fJu6G9B3R-awWmmp3N-43" value="&lt;div&gt;+ FileExtension: string&amp;nbsp;&lt;/div&gt;&lt;div&gt;+ Format(TestDocument document): string&lt;/div&gt;&lt;div&gt;- Escape(string value): string&lt;/div&gt;" style="text;strokeColor=none;fillColor=none;align=left;verticalAlign=top;spacingLeft=4;spacingRight=4;overflow=hidden;rotatable=0;points=[[0,0.5],[1,0.5]];portConstraint=eastwest;whiteSpace=wrap;html=1;" vertex="1" parent="B5fJu6G9B3R-awWmmp3N-42">
          <mxGeometry y="26" width="250" height="54" as="geometry" />
        </mxCell>
        <mxCell id="B5fJu6G9B3R-awWmmp3N-44" value="PlainConsoleFormatter" style="swimlane;fontStyle=1;align=center;verticalAlign=top;childLayout=stackLayout;horizontal=1;startSize=26;horizontalStack=0;resizeParent=1;resizeParentMax=0;resizeLast=0;collapsible=1;marginBottom=0;whiteSpace=wrap;html=1;" vertex="1" parent="1">
          <mxGeometry x="860" y="390" width="250" height="70" as="geometry" />
        </mxCell>
        <mxCell id="B5fJu6G9B3R-awWmmp3N-45" value="&lt;div&gt;&amp;nbsp;+ FileExtension: string&amp;nbsp;&lt;/div&gt;&lt;div&gt;+ Format(TestDocument document): string&lt;/div&gt;" style="text;strokeColor=none;fillColor=none;align=left;verticalAlign=top;spacingLeft=4;spacingRight=4;overflow=hidden;rotatable=0;points=[[0,0.5],[1,0.5]];portConstraint=eastwest;whiteSpace=wrap;html=1;" vertex="1" parent="B5fJu6G9B3R-awWmmp3N-44">
          <mxGeometry y="26" width="250" height="44" as="geometry" />
        </mxCell>
        <mxCell id="B5fJu6G9B3R-awWmmp3N-46" value="" style="endArrow=open;startArrow=none;endFill=0;startFill=0;endSize=8;html=1;verticalAlign=bottom;dashed=1;labelBackgroundColor=none;rounded=0;fontSize=12;curved=1;exitX=0.008;exitY=0.246;exitDx=0;exitDy=0;exitPerimeter=0;" edge="1" parent="1" source="B5fJu6G9B3R-awWmmp3N-43">
          <mxGeometry width="160" relative="1" as="geometry">
            <mxPoint x="890" y="380" as="sourcePoint" />
            <mxPoint x="800" y="320" as="targetPoint" />
          </mxGeometry>
        </mxCell>
        <mxCell id="B5fJu6G9B3R-awWmmp3N-47" value="" style="endArrow=open;startArrow=none;endFill=0;startFill=0;endSize=8;html=1;verticalAlign=bottom;dashed=1;labelBackgroundColor=none;rounded=0;fontSize=12;curved=1;exitX=0;exitY=0.25;exitDx=0;exitDy=0;entryX=1;entryY=0.5;entryDx=0;entryDy=0;" edge="1" parent="1" source="B5fJu6G9B3R-awWmmp3N-44" target="B5fJu6G9B3R-awWmmp3N-34">
          <mxGeometry width="160" relative="1" as="geometry">
            <mxPoint x="840" y="490" as="sourcePoint" />
            <mxPoint x="780" y="598" as="targetPoint" />
          </mxGeometry>
        </mxCell>
        <mxCell id="B5fJu6G9B3R-awWmmp3N-49" value="&lt;div&gt;&amp;lt;&amp;lt;IPromptFlow&amp;gt;&amp;gt;&lt;/div&gt;" style="swimlane;fontStyle=0;childLayout=stackLayout;horizontal=1;startSize=26;fillColor=none;horizontalStack=0;resizeParent=1;resizeParentMax=0;resizeLast=0;collapsible=1;marginBottom=0;whiteSpace=wrap;html=1;" vertex="1" parent="1">
          <mxGeometry x="450" y="580" width="230" height="60" as="geometry" />
        </mxCell>
        <mxCell id="B5fJu6G9B3R-awWmmp3N-50" value="&lt;div&gt;+&amp;nbsp;&lt;span style=&quot;background-color: transparent; color: light-dark(rgb(0, 0, 0), rgb(255, 255, 255));&quot;&gt;CollectTestDocument():&lt;/span&gt;&lt;span style=&quot;background-color: transparent; color: light-dark(rgb(0, 0, 0), rgb(255, 255, 255));&quot;&gt;&amp;nbsp;TestDocument&amp;nbsp;&lt;/span&gt;&lt;/div&gt;" style="text;strokeColor=none;fillColor=none;align=left;verticalAlign=top;spacingLeft=4;spacingRight=4;overflow=hidden;rotatable=0;points=[[0,0.5],[1,0.5]];portConstraint=eastwest;whiteSpace=wrap;html=1;" vertex="1" parent="B5fJu6G9B3R-awWmmp3N-49">
          <mxGeometry y="26" width="230" height="34" as="geometry" />
        </mxCell>
        <mxCell id="B5fJu6G9B3R-awWmmp3N-51" value="" style="endArrow=none;html=1;rounded=0;fontSize=12;startSize=8;endSize=8;curved=1;exitX=0.993;exitY=0.291;exitDx=0;exitDy=0;exitPerimeter=0;entryX=0;entryY=0.25;entryDx=0;entryDy=0;" edge="1" parent="1" source="B5fJu6G9B3R-awWmmp3N-2" target="B5fJu6G9B3R-awWmmp3N-49">
          <mxGeometry width="50" height="50" relative="1" as="geometry">
            <mxPoint x="420" y="538" as="sourcePoint" />
            <mxPoint x="449" y="380" as="targetPoint" />
          </mxGeometry>
        </mxCell>
        <mxCell id="B5fJu6G9B3R-awWmmp3N-54" value="PromptFlow" style="swimlane;fontStyle=1;align=center;verticalAlign=top;childLayout=stackLayout;horizontal=1;startSize=26;horizontalStack=0;resizeParent=1;resizeParentMax=0;resizeLast=0;collapsible=1;marginBottom=0;whiteSpace=wrap;html=1;" vertex="1" parent="1">
          <mxGeometry x="557.5" y="714" width="235" height="104" as="geometry" />
        </mxCell>
        <mxCell id="B5fJu6G9B3R-awWmmp3N-55" value="&lt;div&gt;- iInputReader:&amp;nbsp;IInputReader&lt;/div&gt;&lt;div&gt;-&amp;nbsp;console: IConsole&lt;/div&gt;" style="text;strokeColor=none;fillColor=none;align=left;verticalAlign=top;spacingLeft=4;spacingRight=4;overflow=hidden;rotatable=0;points=[[0,0.5],[1,0.5]];portConstraint=eastwest;whiteSpace=wrap;html=1;" vertex="1" parent="B5fJu6G9B3R-awWmmp3N-54">
          <mxGeometry y="26" width="235" height="44" as="geometry" />
        </mxCell>
        <mxCell id="B5fJu6G9B3R-awWmmp3N-56" value="" style="line;strokeWidth=1;fillColor=none;align=left;verticalAlign=middle;spacingTop=-1;spacingLeft=3;spacingRight=3;rotatable=0;labelPosition=right;points=[];portConstraint=eastwest;strokeColor=inherit;" vertex="1" parent="B5fJu6G9B3R-awWmmp3N-54">
          <mxGeometry y="70" width="235" height="8" as="geometry" />
        </mxCell>
        <mxCell id="B5fJu6G9B3R-awWmmp3N-57" value="+&amp;nbsp;&lt;span style=&quot;color: light-dark(rgb(0, 0, 0), rgb(255, 255, 255)); background-color: transparent;&quot;&gt;CollectTestDocument():&lt;/span&gt;&lt;span style=&quot;color: light-dark(rgb(0, 0, 0), rgb(255, 255, 255)); background-color: transparent;&quot;&gt;&amp;nbsp;TestDocument&amp;nbsp;&lt;/span&gt;" style="text;strokeColor=none;fillColor=none;align=left;verticalAlign=top;spacingLeft=4;spacingRight=4;overflow=hidden;rotatable=0;points=[[0,0.5],[1,0.5]];portConstraint=eastwest;whiteSpace=wrap;html=1;" vertex="1" parent="B5fJu6G9B3R-awWmmp3N-54">
          <mxGeometry y="78" width="235" height="26" as="geometry" />
        </mxCell>
        <mxCell id="B5fJu6G9B3R-awWmmp3N-59" value="" style="endArrow=open;startArrow=none;endFill=0;startFill=0;endSize=8;html=1;verticalAlign=bottom;dashed=1;labelBackgroundColor=none;rounded=0;fontSize=12;curved=1;exitX=0.827;exitY=1.031;exitDx=0;exitDy=0;entryX=0.5;entryY=0;entryDx=0;entryDy=0;exitPerimeter=0;" edge="1" parent="1" source="B5fJu6G9B3R-awWmmp3N-50" target="B5fJu6G9B3R-awWmmp3N-54">
          <mxGeometry width="160" relative="1" as="geometry">
            <mxPoint x="600" y="510" as="sourcePoint" />
            <mxPoint x="744" y="553" as="targetPoint" />
          </mxGeometry>
        </mxCell>
        <mxCell id="B5fJu6G9B3R-awWmmp3N-60" value="TestDocument" style="swimlane;fontStyle=0;childLayout=stackLayout;horizontal=1;startSize=26;fillColor=none;horizontalStack=0;resizeParent=1;resizeParentMax=0;resizeLast=0;collapsible=1;marginBottom=0;whiteSpace=wrap;html=1;" vertex="1" parent="1">
          <mxGeometry x="550" y="410" width="260" height="130" as="geometry" />
        </mxCell>
        <mxCell id="B5fJu6G9B3R-awWmmp3N-61" value="&lt;div&gt;+ Title:&amp;nbsp;&lt;span style=&quot;background-color: transparent; color: light-dark(rgb(0, 0, 0), rgb(255, 255, 255));&quot;&gt;&amp;nbsp;&lt;/span&gt;&lt;span style=&quot;background-color: transparent; color: light-dark(rgb(0, 0, 0), rgb(255, 255, 255));&quot;&gt;string&lt;/span&gt;&lt;span style=&quot;background-color: transparent; color: light-dark(rgb(0, 0, 0), rgb(255, 255, 255));&quot;&gt;&amp;nbsp;&lt;/span&gt;&lt;/div&gt;&lt;div&gt;+ Description:&lt;span style=&quot;background-color: transparent; color: light-dark(rgb(0, 0, 0), rgb(255, 255, 255));&quot;&gt;&amp;nbsp;&lt;/span&gt;&lt;span style=&quot;background-color: transparent; color: light-dark(rgb(0, 0, 0), rgb(255, 255, 255));&quot;&gt;string&lt;/span&gt;&lt;span style=&quot;background-color: transparent; color: light-dark(rgb(0, 0, 0), rgb(255, 255, 255));&quot;&gt;&amp;nbsp;&lt;/span&gt;&lt;/div&gt;&lt;div&gt;+ Steps:&amp;nbsp;List&amp;lt;string&amp;gt;&lt;/div&gt;&lt;div&gt;&lt;span style=&quot;background-color: transparent; color: light-dark(rgb(0, 0, 0), rgb(255, 255, 255));&quot;&gt;+ Expected:&amp;nbsp;&lt;/span&gt;&lt;span style=&quot;background-color: transparent; color: light-dark(rgb(0, 0, 0), rgb(255, 255, 255));&quot;&gt;&amp;nbsp;&lt;/span&gt;&lt;span style=&quot;background-color: transparent; color: light-dark(rgb(0, 0, 0), rgb(255, 255, 255));&quot;&gt;string&lt;/span&gt;&lt;span style=&quot;background-color: transparent; color: light-dark(rgb(0, 0, 0), rgb(255, 255, 255));&quot;&gt;&amp;nbsp;&lt;/span&gt;&lt;/div&gt;&lt;div&gt;+&amp;nbsp; Actual:&amp;nbsp;&lt;span style=&quot;background-color: transparent; color: light-dark(rgb(0, 0, 0), rgb(255, 255, 255));&quot;&gt;&amp;nbsp;&lt;/span&gt;&lt;span style=&quot;background-color: transparent; color: light-dark(rgb(0, 0, 0), rgb(255, 255, 255));&quot;&gt;string&lt;/span&gt;&lt;span style=&quot;background-color: transparent; color: light-dark(rgb(0, 0, 0), rgb(255, 255, 255));&quot;&gt;&amp;nbsp;&lt;/span&gt;&lt;/div&gt;&lt;div&gt;+ CreatedAt:&amp;nbsp;&lt;span style=&quot;background-color: transparent; color: light-dark(rgb(0, 0, 0), rgb(255, 255, 255));&quot;&gt;DateTimeOffset&lt;/span&gt;&lt;span style=&quot;background-color: transparent; color: light-dark(rgb(0, 0, 0), rgb(255, 255, 255));&quot;&gt;&amp;nbsp;&lt;/span&gt;&lt;/div&gt;" style="text;strokeColor=none;fillColor=none;align=left;verticalAlign=top;spacingLeft=4;spacingRight=4;overflow=hidden;rotatable=0;points=[[0,0.5],[1,0.5]];portConstraint=eastwest;whiteSpace=wrap;html=1;" vertex="1" parent="B5fJu6G9B3R-awWmmp3N-60">
          <mxGeometry y="26" width="260" height="104" as="geometry" />
        </mxCell>
        <mxCell id="B5fJu6G9B3R-awWmmp3N-64" value="" style="endArrow=none;html=1;rounded=0;fontSize=12;startSize=8;endSize=8;curved=1;exitX=0.75;exitY=0;exitDx=0;exitDy=0;entryX=0.512;entryY=1.027;entryDx=0;entryDy=0;entryPerimeter=0;" edge="1" parent="1" source="B5fJu6G9B3R-awWmmp3N-49" target="B5fJu6G9B3R-awWmmp3N-61">
          <mxGeometry width="50" height="50" relative="1" as="geometry">
            <mxPoint x="650" y="610" as="sourcePoint" />
            <mxPoint x="700" y="560" as="targetPoint" />
          </mxGeometry>
        </mxCell>
        <mxCell id="B5fJu6G9B3R-awWmmp3N-65" value="" style="endArrow=none;html=1;rounded=0;fontSize=12;startSize=8;endSize=8;curved=1;exitX=0.5;exitY=0;exitDx=0;exitDy=0;entryX=0.432;entryY=0.98;entryDx=0;entryDy=0;entryPerimeter=0;" edge="1" parent="1" source="B5fJu6G9B3R-awWmmp3N-60" target="B5fJu6G9B3R-awWmmp3N-34">
          <mxGeometry width="50" height="50" relative="1" as="geometry">
            <mxPoint x="650" y="597" as="sourcePoint" />
            <mxPoint x="710" y="560" as="targetPoint" />
          </mxGeometry>
        </mxCell>
        <mxCell id="B5fJu6G9B3R-awWmmp3N-66" value="" style="endArrow=open;startArrow=none;endFill=0;startFill=0;endSize=8;html=1;verticalAlign=bottom;dashed=1;labelBackgroundColor=none;rounded=0;fontSize=12;curved=1;exitX=-0.009;exitY=0.033;exitDx=0;exitDy=0;entryX=0.885;entryY=1.05;entryDx=0;entryDy=0;exitPerimeter=0;entryPerimeter=0;" edge="1" parent="1" source="B5fJu6G9B3R-awWmmp3N-10" target="B5fJu6G9B3R-awWmmp3N-57">
          <mxGeometry width="160" relative="1" as="geometry">
            <mxPoint x="820" y="970" as="sourcePoint" />
            <mxPoint x="760" y="900" as="targetPoint" />
          </mxGeometry>
        </mxCell>
        <mxCell id="B5fJu6G9B3R-awWmmp3N-67" value="&amp;lt;&amp;lt;IInputReader&amp;gt;&amp;gt;" style="swimlane;fontStyle=0;childLayout=stackLayout;horizontal=1;startSize=26;fillColor=none;horizontalStack=0;resizeParent=1;resizeParentMax=0;resizeLast=0;collapsible=1;marginBottom=0;whiteSpace=wrap;html=1;" vertex="1" parent="1">
          <mxGeometry x="827" y="610" width="170" height="90" as="geometry" />
        </mxCell>
        <mxCell id="B5fJu6G9B3R-awWmmp3N-68" value="&lt;div&gt;+&lt;span style=&quot;background-color: transparent;&quot;&gt;ReadRequired(string label): string&lt;/span&gt;&lt;/div&gt;&lt;div&gt;+ReadLine(string prompt): string&lt;/div&gt;" style="text;strokeColor=none;fillColor=none;align=left;verticalAlign=top;spacingLeft=4;spacingRight=4;overflow=hidden;rotatable=0;points=[[0,0.5],[1,0.5]];portConstraint=eastwest;whiteSpace=wrap;html=1;" vertex="1" parent="B5fJu6G9B3R-awWmmp3N-67">
          <mxGeometry y="26" width="170" height="64" as="geometry" />
        </mxCell>
        <mxCell id="B5fJu6G9B3R-awWmmp3N-69" value="ConsoleInputReader" style="swimlane;fontStyle=0;childLayout=stackLayout;horizontal=1;startSize=26;fillColor=none;horizontalStack=0;resizeParent=1;resizeParentMax=0;resizeLast=0;collapsible=1;marginBottom=0;whiteSpace=wrap;html=1;" vertex="1" parent="1">
          <mxGeometry x="1047" y="610" width="170" height="110" as="geometry" />
        </mxCell>
        <mxCell id="B5fJu6G9B3R-awWmmp3N-70" value="&lt;div&gt;+ console: IConsole&lt;/div&gt;&lt;div&gt;&lt;div&gt;+ReadRequired(string label): string&lt;/div&gt;&lt;div&gt;+ReadLine(string prompt): string&lt;/div&gt;&lt;/div&gt;" style="text;strokeColor=none;fillColor=none;align=left;verticalAlign=top;spacingLeft=4;spacingRight=4;overflow=hidden;rotatable=0;points=[[0,0.5],[1,0.5]];portConstraint=eastwest;whiteSpace=wrap;html=1;" vertex="1" parent="B5fJu6G9B3R-awWmmp3N-69">
          <mxGeometry y="26" width="170" height="84" as="geometry" />
        </mxCell>
        <mxCell id="B5fJu6G9B3R-awWmmp3N-71" value="" style="endArrow=open;startArrow=none;endFill=0;startFill=0;endSize=8;html=1;verticalAlign=bottom;dashed=1;labelBackgroundColor=none;rounded=0;fontSize=12;curved=1;exitX=0;exitY=0.5;exitDx=0;exitDy=0;entryX=1;entryY=0.5;entryDx=0;entryDy=0;" edge="1" parent="1" source="B5fJu6G9B3R-awWmmp3N-70" target="B5fJu6G9B3R-awWmmp3N-68">
          <mxGeometry width="160" relative="1" as="geometry">
            <mxPoint x="1047" y="800" as="sourcePoint" />
            <mxPoint x="1207" y="800" as="targetPoint" />
          </mxGeometry>
        </mxCell>
        <mxCell id="B5fJu6G9B3R-awWmmp3N-72" value="" style="endArrow=open;startArrow=none;endFill=0;startFill=0;endSize=8;html=1;verticalAlign=bottom;dashed=1;labelBackgroundColor=none;rounded=0;fontSize=12;curved=1;exitX=-0.002;exitY=0.088;exitDx=0;exitDy=0;exitPerimeter=0;" edge="1" parent="1" source="B5fJu6G9B3R-awWmmp3N-68" target="B5fJu6G9B3R-awWmmp3N-54">
          <mxGeometry width="160" relative="1" as="geometry">
            <mxPoint x="860" y="899" as="sourcePoint" />
            <mxPoint x="800" y="860" as="targetPoint" />
          </mxGeometry>
        </mxCell>
        <mxCell id="B5fJu6G9B3R-awWmmp3N-74" value="" style="endArrow=none;html=1;rounded=0;fontSize=12;startSize=8;endSize=8;curved=1;exitX=0.75;exitY=0;exitDx=0;exitDy=0;entryX=0.206;entryY=1.006;entryDx=0;entryDy=0;entryPerimeter=0;" edge="1" parent="1" target="B5fJu6G9B3R-awWmmp3N-70">
          <mxGeometry width="50" height="50" relative="1" as="geometry">
            <mxPoint x="955" y="830" as="sourcePoint" />
            <mxPoint x="1015" y="793" as="targetPoint" />
          </mxGeometry>
        </mxCell>
        <mxCell id="B5fJu6G9B3R-awWmmp3N-79" value="&amp;lt;&amp;lt;IFileExporter&amp;gt;&amp;gt;" style="swimlane;fontStyle=0;childLayout=stackLayout;horizontal=1;startSize=26;fillColor=none;horizontalStack=0;resizeParent=1;resizeParentMax=0;resizeLast=0;collapsible=1;marginBottom=0;whiteSpace=wrap;html=1;" vertex="1" parent="1">
          <mxGeometry x="130" y="680" width="290" height="90" as="geometry" />
        </mxCell>
        <mxCell id="B5fJu6G9B3R-awWmmp3N-80" value="&lt;div&gt;+ Save(string content, string extension, string baseNameHint, string directory): string&lt;/div&gt;" style="text;strokeColor=none;fillColor=none;align=left;verticalAlign=top;spacingLeft=4;spacingRight=4;overflow=hidden;rotatable=0;points=[[0,0.5],[1,0.5]];portConstraint=eastwest;whiteSpace=wrap;html=1;" vertex="1" parent="B5fJu6G9B3R-awWmmp3N-79">
          <mxGeometry y="26" width="290" height="64" as="geometry" />
        </mxCell>
        <mxCell id="B5fJu6G9B3R-awWmmp3N-81" value="&lt;div&gt;FileExporter&amp;nbsp;&lt;/div&gt;" style="swimlane;fontStyle=0;childLayout=stackLayout;horizontal=1;startSize=26;fillColor=none;horizontalStack=0;resizeParent=1;resizeParentMax=0;resizeLast=0;collapsible=1;marginBottom=0;whiteSpace=wrap;html=1;" vertex="1" parent="1">
          <mxGeometry x="290" y="832" width="310" height="86" as="geometry" />
        </mxCell>
        <mxCell id="B5fJu6G9B3R-awWmmp3N-82" value="+ Save(string content, string extension, string baseNameHint, string directory): string" style="text;strokeColor=none;fillColor=none;align=left;verticalAlign=top;spacingLeft=4;spacingRight=4;overflow=hidden;rotatable=0;points=[[0,0.5],[1,0.5]];portConstraint=eastwest;whiteSpace=wrap;html=1;" vertex="1" parent="B5fJu6G9B3R-awWmmp3N-81">
          <mxGeometry y="26" width="310" height="60" as="geometry" />
        </mxCell>
        <mxCell id="B5fJu6G9B3R-awWmmp3N-83" value="" style="endArrow=open;startArrow=none;endFill=0;startFill=0;endSize=8;html=1;verticalAlign=bottom;dashed=1;labelBackgroundColor=none;rounded=0;fontSize=12;curved=1;exitX=0.537;exitY=1.063;exitDx=0;exitDy=0;entryX=0.352;entryY=0.013;entryDx=0;entryDy=0;exitPerimeter=0;entryPerimeter=0;" edge="1" parent="1" source="B5fJu6G9B3R-awWmmp3N-80" target="B5fJu6G9B3R-awWmmp3N-81">
          <mxGeometry width="160" relative="1" as="geometry">
            <mxPoint x="530" y="760" as="sourcePoint" />
            <mxPoint x="565" y="833" as="targetPoint" />
          </mxGeometry>
        </mxCell>
        <mxCell id="B5fJu6G9B3R-awWmmp3N-84" value="" style="endArrow=none;html=1;rounded=0;fontSize=12;startSize=8;endSize=8;curved=1;exitX=0.549;exitY=1.061;exitDx=0;exitDy=0;exitPerimeter=0;entryX=0.5;entryY=0;entryDx=0;entryDy=0;" edge="1" parent="1" source="B5fJu6G9B3R-awWmmp3N-4" target="B5fJu6G9B3R-awWmmp3N-79">
          <mxGeometry width="50" height="50" relative="1" as="geometry">
            <mxPoint x="350" y="510" as="sourcePoint" />
            <mxPoint x="452" y="705" as="targetPoint" />
          </mxGeometry>
        </mxCell>
      </root>
    </mxGraphModel>
  </diagram>
</mxfile>
